<?xml version="1.0" encoding="utf-8"?>
<!-- Generator: Adobe Illustrator 16.0.3, SVG Export Plug-In . SVG Version: 6.00 Build 0)  -->
<!DOCTYPE svg PUBLIC "-//W3C//DTD SVG 1.1//EN" "http://www.w3.org/Graphics/SVG/1.1/DTD/svg11.dtd">
<svg version="1.1" id="Ebene_1" xmlns="http://www.w3.org/2000/svg" xmlns:xlink="http://www.w3.org/1999/xlink" x="0px" y="0px"
	 width="500px" height="500px" viewBox="0 0 500 500" enable-background="new 0 0 500 500" xml:space="preserve">
<path fill-rule="evenodd" clip-rule="evenodd" fill="#FFFFFF" d="M278.893,234.246l-69.086,9.375l-62.564-97.17l-94.899,32.408
	l66.554,91.52l96.125-7.19l67.638-17.807L278.893,234.246z M143.853,151.995l60.841,94.362l-61.781-88.498l-75.414,18.854
	L143.853,151.995z M212.373,254.961l0.327,5.526l-20.501-0.206l-2.03-4.609l-51.061,5.805l1.341,3.855l-19.775,1.675l-3.185-6.033
	l90.647-9.008l67.367-12.178L212.373,254.961z"/>
<path fill-rule="evenodd" clip-rule="evenodd" fill="#FFFFFF" d="M404.068,198.259l-14.523-41.148l-7.261-36.307L354.852,86.11
	l-28.238-32.273l-22.592-17.75l-24.204,3.228l-19.362,2.42l-21.787-2.42l-18.556-4.842l-17.75-12.102L184.61,9.463l-16.136-2.422
	l-12.909,4.034l-8.068,4.841l-7.261,6.454l-6.426,9.682L129,49.803v15.33l9.652,3.227l2.404,8.875l8.062,4.841l13.713,20.172
	l-13.718,25.817l1.614,20.978l10.488,14.523l12.909,29.045l21.785,17.75l-21.785-43.568l22.591,30.659l-15.33-40.342l25.013,43.568
	l39.533-22.591l8.875-41.147l1.615-37.115l3.226-24.204l13.717-25.819l26.626-0.808l-22.592,17.751l-0.807,31.467l-5.648,31.465
	l7.262,1.613l-11.295,67.774l-20.979,8.875l19.364-20.978l-1.613-39.534l-20.979,51.637l-38.728,23.399l-3.963,4.824l11.645,12.54
	l60.351-6.132l-61.964,9.36l-10.186-15.579l-14.439,17.578l30.66-2.421l-20.17,16.136l25.819,16.138l-12.91,7.261l15.33,37.921
	l-24.205-15.329l4.033-19.364l-24.205-23.398l12.91,41.956l-11.295-4.034l-3.228-12.909l-10.392-15.479l1.516,11.445l-17.604,10.006
	l-13.861-17.269l5.648,24.206l14.522,28.239l6.455,4.033l15.33,20.172l19.364,19.363l30.66,25.012l20.977,27.433l5.649,13.715
	l-5.649,21.785l-9.681,18.558l4.715,11.046l17.068-6.206l-0.904-12.909l-8.97,8.069v-10.49l2.517-10.488l4.891-23.396l-7.239-13.717
	l-12.897-22.592l-14.516-13.716l-25.01-18.558l-9.681-10.489l-28.239-32.271l13.717,4.034l14.523-8.069l29.853,29.047l-20.978-4.035
	l29.853,15.33l7.262,12.909l-25.013-8.876l41.148,27.266L268.521,419h11.296L268,435.467v25.011l16.8-14.522l5.577-23.397
	l-10.523-22.591l-17.771-29.047L221.735,333l42.756,34.693l18.556,25.012l12.908,27.433l-7.262-29.854l-21.785-27.432l29.046,18.559
	l8.067,23.397l17.751,8.874l-20.979,45.184l-20.17,5.647l-14.523,16.136l39.536-16.943l33.078-21.784L360.5,414.49l-14.523-29.047
	l-63.739-64.547l4.841-16.942l30.856,1.646l44.457-6.792l28.9,2.103l19.231-21.969L404.068,198.259z M135.653,55.226l-0.968-16.782
	l11.941-14.523l20.977-10.973L157.6,27.47l11.618-2.26l18.717,15.815l-7.099,13.231l-18.009-13.326l-21.042,16.554L135.653,55.226z
	 M161.149,80.075l-0.968-4.196l12.586-8.391l-5.164-9.681l-4.195,6.776l-15.168,5.811l-3.55-4.486L161.149,54h6.131l14.847,18.04
	l-6.455,3.856l7.745,16.774l-13.232,3.869l1.938-9.038l-3.551-8.393L161.149,80.075z M166.958,135.908l4.196,24.851l-17.75-20.009
	l4.519-19.364l23.558-16.459L166.958,135.908z M244.317,152.271l-35.5-10.489l5.784,20.978L222,154.69v26.626
	c-1-0.809-27.839-29.853-41.286-44.376l20.909-7.262l6.42,5.648l11.354-3.227L213,115.156v-6.455l-4.109-7.261l-4.072,6.454
	l-7.28-1.612l7.252-9.684l14.519,2.42l4.838,12.91l-0.809,12.91l15.329-23.398l8.068,25.012L244.317,152.271z M261.518,62.325
	L248.609,86.53l1.291-14.201l-5.809-24.849l22.591-2.261L261.518,62.325z M287.886,217.623l-22.592-0.807l8.875-3.228l1.614-14.522
	l9.682,9.682l27.433,15.33L287.886,217.623z M356.08,208.199l13.877-5.164l-15.492,11.62l-21.945,5.162L356.08,208.199z
	 M354.142,223.691l-30.981,0.646l31.305-5.81l18.72-6.777L354.142,223.691z"/>
<path fill-rule="evenodd" clip-rule="evenodd" fill="#FFFFFF" d="M441.038,381.448l-0.638-7.188l-45.207,0.319v4.153h16.135
	l4.154,2.236l3.992-0.159l5.751-2.558l12.458-0.479L441.038,381.448 M408.229,412.647l22.745-4.202l4.154,1.917l-1.118-4.314
	l-55.751,2.718L408.229,412.647z M407.59,428.462l22.747-4.203l4.153,1.916l-1.119-4.313l-55.748,2.717L407.59,428.462z
	 M406.95,444.436l22.746-4.203l4.153,1.918l-1.116-4.314l-55.751,2.715L406.95,444.436z M406.312,460.249l22.748-4.202l4.152,1.916
	l-1.118-4.313l-55.751,2.716L406.312,460.249z M444.167,477.472l1.257-172.611l-81.731-3.775l-2.061,119.409l-1.192-119.084
	l-56.206,5.964l61.086-10.518l82.618,5.49l-1.633,75.843L444.167,477.472z M360.794,492.555l-53.628-41.896l4.876-3.126
	l16.846-36.179l-22.122-8.82l-2.113-90.551l20.11,58.234l35.193,66.615l3.771,48.6l1.918-181.095l77.264,2.382l0.333,15.899
	l-68.625,3.271l68.691,1.997l-2.186,19.741l-63.709,2.221l63.499,2.797l0.398,10.383l-42.381,3.596l5.99-10.384l-32.697-0.3
	l-3.196-48.423l-0.817,55.37l27.13-2.543l-0.654,10.272l48.224-0.799l-1.674,112.262L360.794,492.555z"/>
</svg>
