<?xml version="1.0" encoding="utf-8"?>
<!-- Generator: Adobe Illustrator 16.0.3, SVG Export Plug-In . SVG Version: 6.00 Build 0)  -->
<!DOCTYPE svg PUBLIC "-//W3C//DTD SVG 1.1//EN" "http://www.w3.org/Graphics/SVG/1.1/DTD/svg11.dtd">
<svg version="1.1" id="Ebene_1" xmlns="http://www.w3.org/2000/svg" xmlns:xlink="http://www.w3.org/1999/xlink" x="0px" y="0px"
	 width="600px" height="600px" viewBox="0 0 600 600" enable-background="new 0 0 600 600" xml:space="preserve">
<g>
	<path fill="#FFFFFF" d="M530.965,312.983c-7.322-34.187-24.278-63.599-44.901-90.943c-35.219-46.705-78.996-81.514-138.372-91.589
		c-41.582-7.055-83.314-5.974-124.929,1.363c-37.352,6.586-71.753,19.416-100.757,44.689
		c-20.076,17.494-36.602,37.527-46.796,62.479c-11.938,29.221-10.465,58.641-1.05,87.862c6.1,18.928,18.429,32.938,37.703,40.005
		c16.837,6.176,34.104,9.762,52.25,8.928c5.273,8.881,6.299,17.626,5.761,26.817c-0.794,13.458,5.055,24,16.565,30.345
		c21.688,11.958,44.926,18.749,69.998,16.262c9.814-0.974,19.492-3.312,29.631-5.098c11.592,20.198,30.876,22.284,51.18,21.937
		c5.483,3.289,11.42,7.622,17.224,7.45c24.04-0.714,48.117-2.05,72.029-4.585c21.189-2.243,36.101-13.604,42.021-35
		c0.634-2.279,1.633-4.456,2.419-6.561c5.609-0.706,10.904-0.607,15.665-2.158c6.564-2.138,13.896-4.212,18.808-8.64
		c9.975-8.99,17.354-20.29,22.009-33.147C535.794,360.273,536.087,336.903,530.965,312.983z M450.589,197.836
		c1.471,1.581,1.175,4.819,2.001,8.767c-6.763,0.904-14.322,3.985-31.854-4.16c-1.076-1.088-2.149-2.178-3.245-3.247
		c-1.544-1.51-1.485-2.56,0.165-4.176c3.525-3.454,11.266-11.01,15.215-15.04C439.123,185.53,444.879,191.71,450.589,197.836z
		 M410.648,197.463c1.005,1.002,2.008,2.004,3.013,3.006c8.518,9.341,11.252,19.82,10.641,31.085
		c-0.107,1.985-0.24,3.964-0.387,5.94c-5.842-5.885-23.679-23.764-27.989-28.085c-7.67-7.684-15.355-15.431-22.981-23.153
		c-0.673-0.675-1.004-1.724-1.492-2.581c0.962-0.242,1.924-0.704,2.892-0.723c5.603-0.074,11.214,0.12,16.807-0.129
		c3.661-0.16,6.221,1.193,8.72,3.76c3.275,3.373,6.593,6.703,9.919,10.024c-0.059-0.035-0.115-0.066-0.175-0.102
		C409.975,196.821,410.304,197.144,410.648,197.463z M321.094,133.82c30.231,0.908,52.022,10.688,71.521,19.216
		c-1.78,1.178-3.753,1.345-6.024,1.335c-13.938-0.059-27.871-0.031-41.809-0.02c-4.398,0.003-8.674,0.604-11.892-4.179
		c-1.936-2.878-6.395-2.508-9.188-0.448c-2.795,2.058-4.083,5.896-2.943,9.285c1.169,3.472,3.659,5.238,8.448,5.525
		c0.939-0.521,3.482-1.107,4.583-2.744c2.183-3.251,4.955-3.485,8.213-3.473c14.861,0.066,29.73,0.063,44.592-0.007
		c3.261-0.013,5.84,0.439,8.18,3.502c2.951,3.875,8.281,3.544,11.316,0.113c0.467-0.529,0.846-1.099,1.157-1.69
		c10.861,6.509,19.013,14.199,22.02,16.66c0.082,0.067,0.16,0.138,0.242,0.205c-4.11,4.195-10.012,10.366-13.629,13.899
		c-3.229,3.157-3.315,3.122-6.654-0.096c-2.388-2.313-4.912-4.525-7.004-7.092c-2.935-3.604-6.508-4.558-11.043-4.537
		c-32.919,0.15-65.842,0.063-98.759,0.168c-3.593,0.014-6.251-0.925-8.798-3.514c-12.143-12.37-24.364-24.556-36.783-36.651
		c-0.708-0.69-1.311-1.375-1.826-2.07c9.985-1.269,21.042-2.314,33.122-2.956c4.844,4.828,9.684,9.661,14.553,14.464
		c1.882,1.865,2.881,3.57,2.51,6.568c-0.683,5.576,2.85,9.225,7.985,9.181c4.741-0.041,8.03-3.359,7.961-8.087
		c-0.069-5.011-3.337-8.291-8.682-7.783c-3.388,0.322-5.377-0.791-7.532-2.997c-3.842-3.925-7.71-7.774-11.606-11.593
		C295.029,133.509,307.631,133.395,321.094,133.82z M118.373,189.449c17.079-18.519,31.3-22.529,46.653-31.176
		c4.72-2.658,10.07-4.369,15.432-6.612c0,0,0.03-0.012,0.073-0.029c-0.702,2.646-2.203,4.886-4.453,7.12
		c-32.633,32.419-65.134,64.979-97.603,97.571C84.42,232.01,103.025,206.087,118.373,189.449z M143.615,363.721
		c-2.404,0.205-5.198-0.249-8.619-0.714c-32.004-4.372-42.491-20.513-43.334-21.958c0.006,0-0.238-0.417-0.645-1.117
		c0.677,0.683,1.357,1.361,2.031,2.045c2.815,2.859,5.756,4.181,9.759,4.003c5.624-0.249,11.301,0.326,16.892-0.159
		c6.367-0.553,10.8,1.795,15.26,6.288c3.851,3.883,7.713,7.751,11.574,11.621C145.567,363.758,144.593,363.758,143.615,363.721z
		 M161.541,359.436c0.015,0,0.029,0.004,0.046,0.008c-2.599,1.924-6.096,3.174-9.973,3.809
		c-3.541-3.442-11.891-11.494-14.832-14.671c-1.306-1.42-0.889-2.449,1.149-2.607c0.966-0.072,1.987-0.06,2.957-0.06
		c11.581,0,23.172,0.006,34.758,0.009c-0.02,0.022-0.037,0.043-0.057,0.065C168.659,354.071,164.245,357.764,161.541,359.436z
		 M268.94,436.324c-19.662,3.527-39.419,3.571-58.436-3.048c-7.604-2.649-14.461-7.688-21.274-12.214
		c-2.137-1.42-3.022-4.728-5.463-8.818c7.686,1.449,12.959,2.444,18.233,3.439c0.271-0.706,0.542-1.412,0.813-2.122
		c-1.863-1.039-3.707-2.108-5.588-3.114c-16.78-8.972-26.213-25.925-22.448-41.919c1.174-4.99,3.601-10.461,7.172-13.963
		c10.066-9.861,20.667-19.265,31.722-28.003c11.524-9.107,24.882-9.924,40.336-5.748c-2.073,9.158-5.668,17.984-5.609,26.784
		c0.058,8.814,3.761,17.607,6.012,27.012c-7.183,4.438-16.387,7.124-19.294,17.124c7.15-5.649,13.888-12.133,22.924-10.354
		c7.043,7.311,14.398,7.277,14.801,6.63c-1.308-0.919-2.656-1.789-3.92-2.767c-7.684-5.949-7.379-9.967-2.283-18.408
		c2.428-4.021,5.298-7.312,7.345-10.93c-2.693,0-11.826,7.493-11.943,10.187c-5.27-5.386-7.648-10.249-7.359-15.998
		c0.703-13.959,5.535-25.569,18.568-33.458c10.977-6.648,21.069-14.915,30.936-23.199c16.229-13.619,35.028-12.759,54.11-10.655
		c8.016,0.889,12.408,6.798,15.608,14.205c2.316-7.208,2.316-7.208-8.142-20.861c2.739-2.891,5.469-6.122,8.564-8.958
		c5.188-4.757,8.106-9.905,9.032-17.443c1.043-8.5,5.348-16.598,8.182-24.717c-4.407,1.767-7.438,6.195-9.493,11.339
		c-0.502,1.254-0.969,2.523-1.425,3.797c-9.99-9.997-19.981-19.995-29.938-30.029c-2.671-2.693-5.404-3.95-9.203-3.877
		c-10.101,0.187-20.209,0.039-30.313,0.073c-3.154,0.015-5.737-0.199-8.019-3.321c-3.024-4.144-8.312-4.083-11.813-0.785
		c-3.377,3.176-3.299,8.8,0.159,11.956c3.567,3.256,8.648,3.16,11.745-1.058c2.115-2.883,4.481-3.212,7.483-3.196
		c9.329,0.053,18.661,0.2,27.981-0.06c4.221-0.121,6.913,1.783,9.866,4.844c7.705,7.981,24.359,24.449,30.345,30.367
		c-1.127,3.299-2.269,6.59-3.666,9.771c-6.689,15.218-18.486,20.707-35.137,16.781c-11.456-2.7-17.752-13.038-17.337-28.406
		c0.019-0.651-0.234-1.31-0.563-3.015c-3.659,3.944-4.743,7.805-4.326,11.965c-19.919,0.166-39.84,0.043-59.761,0.081
		c-3.006,0.004-5.421-0.344-7.587-3.086c-3.19-4.04-8.33-4.125-11.795-0.931c-3.143,2.909-3.308,8.443-0.34,11.577
		c3.317,3.509,8.773,3.44,12.25-0.651c1.855-2.181,3.74-2.997,6.464-2.988c20.526,0.049,41.055,0.017,61.585,0.085
		c2.125,7.582,2.708,12.231,0.972,15.975c-30.222-0.021-60.445-0.322-90.67-0.258c-3.666,0.009-6.541-0.7-9.098-3.917
		c-2.92-3.657-8.22-3.457-11.405-0.268c-3.098,3.092-3.107,8.513-0.017,11.552c3.165,3.113,8.676,3.462,11.442-0.217
		c2.724-3.621,5.946-3.807,9.684-3.739c2.911,0.057,5.826,0.006,8.744,0.006c26.289-0.002,52.575,0.288,78.864,0.277
		c-2.145,2.171-5.35,4.243-9.841,6.756c-3.424,1.916-6.771,3.969-10.098,6.059c-6.514-0.293-13.028-0.812-19.542-0.777
		c-2.699,0.013-4.596-1.398-6.449-3.643c-3.342-4.041-9.005-4.083-12.289-0.622c-3.081,3.24-2.925,8.463,0.348,11.531
		c3.352,3.142,8.646,3.054,11.859-0.86c2.038-2.479,4.605-1.84,7.422-1.813c4.896,0.047,8.011-0.053,12.516,0.062
		c-1.835,1.16-3.675,2.314-5.527,3.444c-2.175,1.328-6.954,3.348-6.978,3.333c-5.084,2.686-20.487,9.309-20.487,9.309
		c-0.018,0.004-0.035,0.008-0.053,0.011c-3.747,1.095-11.171,1.116-15.057,0.94c-4.126-0.183-8.262-1.142-12.35-0.918
		c-0.15,0.008-0.298,0.021-0.448,0.029c2.107-2.31,3.881-3.883,8.394-3.28c4.532,0.605,7.6-3.879,7.195-8.646
		c-0.369-4.34-3.868-7.388-8.31-7.234c-4.764,0.161-7.697,3.694-7.933,8.976c-0.084,1.926-0.508,4.369-1.738,5.633
		c-1.866,1.911-3.746,3.81-5.62,5.712c-1.279,0.314-2.596,0.696-3.985,1.188c-0.009,0.004-0.016,0.008-0.025,0.012
		c-8.418,3.731-17.205,12.4-17.205,12.4l-0.068,0.033c-2.163,1.497-15.666,12.626-21.581,18.541
		c-6.841,0.068-13.684-0.01-20.524-0.06c-1.266-0.005-2.528-0.466-3.792-0.717c0.709-1.081,1.255-2.327,2.144-3.226
		c9.85-9.931,19.799-19.773,29.619-29.732c2.069-2.093,4.149-2.929,7.192-2.768c5.71,0.304,9.067-3.146,8.831-8.326
		c-0.221-4.72-3.776-7.935-8.465-7.644c-4.786,0.296-8.355,4.089-7.56,9.12c0.514,3.271-0.711,5-2.737,7.009
		c-11.043,10.932-22.052,21.907-32.93,33.003c-2.371,2.424-4.835,3.454-8.198,3.414c-13.015-0.143-26.034-0.172-39.05,0.044
		c-3.853,0.064-6.548-1.189-9.184-3.846c-3.421-3.449-6.85-6.878-10.276-10.311c-2.11-4.148-5.126-10.151-7.261-18.272
		c6.292,6.272,12.582,12.552,18.915,18.786c1.722,1.695,4.664,2.839,7.111,2.973c7.161,0.39,14.376-0.064,21.548,0.224
		c4.452,0.175,7.609-1.391,10.725-4.52c35.905-36.079,71.945-72.023,107.916-108.038c2.66-2.667,5.029-4.879,9.472-4.378
		c4.362,0.498,7.472-2.825,7.913-6.881c0.487-4.486-2.72-8.569-7.143-9.091c-4.726-0.56-9.098,2.821-8.761,7.803
		c0.302,4.512-1.687,7.216-4.57,10c-5.447,5.266-10.732,10.701-16.087,16.056c-30.087,30.082-60.234,60.101-90.18,90.327
		c-3.617,3.649-7.292,5.26-12.302,4.927c-4.646-0.306-9.345-0.356-13.976,0.009c-4.897,0.39-8.557-1.121-11.722-4.885
		c-3.341-3.976-3.604-3.864-0.064-7.422c11.782-11.845,23.64-23.618,35.393-35.488c2.415-2.44,4.757-4.03,8.562-3.75
		c4.508,0.322,7.344-2.225,7.973-6.063c0.531-3.271-0.119-6.244-2.949-8.321c-2.771-2.027-5.772-2.168-8.778-0.54
		c-3.017,1.63-4.686,4.332-4.219,7.667c0.377,2.726,0.095,4.704-1.963,6.742c-12.434,12.291-24.789,24.657-37.056,37.118
		c-2.649,2.693-4.386,2.65-7.084-0.099c-3.375-3.442-6.785-6.857-10.184-10.276c-0.537-3.303-0.906-6.871-1.01-10.74
		c-0.064-2.395-0.965-14.779,1.812-27.042c1.488-1.783,2.944-3.527,4.396-4.975c33.245-33.223,66.435-66.38,99.754-99.526
		c3.04-3.029,4.401-5.864,4.457-10.097c5.057-1.687,14.206-4.453,27.098-7.241c0.003,2.326,0.006,4.655,0.012,6.994
		c0.005,3.257-1.352,5.366-3.533,7.532c-32.188,32.074-64.316,64.217-96.456,96.342c-3.63,3.626-6.661,7.631-13.05,6.899
		c-4.125-0.476-7.245,4.336-6.808,8.527c0.414,4.06,3.707,7.13,7.811,7.263c4.586,0.15,8.626-2.719,8.07-7.129
		c-0.682-5.436,2.324-8.136,5.487-11.296c32.436-32.383,64.801-64.72,97.359-96.984c3.9-3.864,5.439-7.512,5.419-13.008
		c-0.008-2.02-0.009-4.03-0.012-6.042c2.745-0.557,5.637-1.11,8.677-1.651c-0.065,9.412-0.172,27.099-0.157,37.932
		c0.001,3.19-1.091,6.435-3.313,8.637c-14.08,13.936-28.096,27.708-42.023,41.791c-2.563,2.591-4.837,4.373-8.965,3.864
		c-4.636-0.569-8.185,3.396-8.213,7.885c-0.035,4.58,3.476,8.107,8.107,8.125c4.819,0.016,8.946-3.722,8.068-8.53
		c-0.693-3.842,0.988-5.673,3.234-7.909c12.811-12.741,25.197-25.804,38.483-38.016c6.636-6.098,8.807-12.315,8.764-21.064
		c-0.057-10.938-0.062-22.308-0.074-33.392c3.747-0.627,7.699-1.232,11.849-1.8c0.548,0.856,1.212,1.684,2.043,2.495
		c12.88,12.619,25.683,25.324,38.247,38.26c3.228,3.319,6.524,4.51,11.051,4.47c22.064-0.194,44.127-0.001,66.189-0.173
		c4.164-0.031,6.842,1.734,9.804,4.727c13.362,13.55,41.354,41.234,55.238,55.157c-1.708,18.098-5.433,35.713-13.778,52.414
		c-6.843,13.696-16.605,23.825-30.378,30.257c-0.999,0.468,8.014,2.313,13.557,1.62c2.58,5.347,0.494,10.158-3.103,13.726
		c-3.538,3.509-8.062,6.206-12.529,8.54c-4.441,2.32-9.351,3.751-14.054,5.569c0.044,0.647,0.088,1.299,0.133,1.947
		c3.76-0.293,7.69,0.007,11.237-1.021c5.103-1.481,9.771-4.669,14.916-5.756c5.22-1.104,11.351-2.1,16.093-0.392
		c9.777,3.527,19.299,6.532,29.825,5.229c1.826-0.228,3.776,0.53,5.431,0.794c11.918,26.027,0.637,48.168-25.87,47.524
		c-15.584-0.377-30.596-1.193-43.941-10.422c-5.954-4.116-12.28-3.398-18.841-0.782c-10.17,4.05-17.178,3.425-22.178-1.713
		c0-2.759,0-5.836,0-10.776c-4,2.5-3.598,3.776-4.561,5.357c-4.881,8.014-11.666,10.531-20.03,7.245
		c-6.635-2.605-8.143-7.425-5.629-17.806c0.099-0.409-0.064-0.885-0.112-1.347c-3.304,2.441-3.303,2.441-7.478,20.016
		c-10.714,10.783-28.68,5.848-40.638,17.735c23.25-4.764,25.61,4.124,17.966,20.63c4.925-1.837,7.084-5.107,8.853-12.21
		c1.18-4.742,1.525-11.288,4.716-13.568c5.386-3.849,12.731-4.954,17.885-6.736c6.778,7.586,12.219,13.671,18.064,20.213
		C303.311,426.727,286.661,433.145,268.94,436.324z M321.255,256.224c0.042,0,0.086-0.001,0.128-0.001l0.002,0.023
		c-0.043,0-0.085,0-0.127,0L321.255,256.224z M406.38,464.298c-2.901,0.134-5.802,0.297-8.701,0.471
		c-1.033-0.024-2.064-0.055-3.095-0.098c-2.585-0.107-5.285-1.054-7.648-2.198c-7.163-3.469-12.961-8.841-18.74-14.187
		c-0.692-0.638-1.159-1.445-1.157-2.23c0.953-0.633,1.895-1.282,2.809-1.967c0.033-0.024,0.064-0.052,0.098-0.076
		c0.469,0.029,0.917,0.132,1.246,0.305c3.033,1.592,5.828,3.625,8.829,5.282c11.105,6.137,22.624,11.231,35.169,13.698
		c0.05,0.01,0.098,0.03,0.147,0.057C412.41,463.835,409.428,464.157,406.38,464.298z M359.185,467.346
		c-7.272,0.41-13.177-2.158-16.195-8.5c6.045-3.229,12.229-5.989,18.022-9.176c1.168,0.148,2.117,1.081,3.062,2.102
		c5.057,5.472,10.945,9.895,17.596,14.068C374.176,466.375,366.683,466.922,359.185,467.346z M304.849,437.282
		c3.426-1.073,6.801-2.132,10.213-3.2c4.717,6.729,10.305,14.771,14.746,21.107c-0.537,0.244-1.083,0.463-1.638,0.659
		C320.322,454.91,309.449,446.006,304.849,437.282z M459.811,432.22c-3.396-2.858-11.475-8.284-35.243-13.83
		c-6.097-1.422-14.009-1.565-21.301-2.109c4.721-1.26,9.487-2.194,14.167-2.035c14.842,0.509,29.226,4.365,43.023,11.388
		C460.516,427.979,460.277,430.163,459.811,432.22z M329.502,438.998c-0.852-1.953-1.764-3.828-2.53-5.55
		c2.537-3.721,8.948-7.088,16.42-9.505C340.274,430.947,336.596,436.563,329.502,438.998z M331.057,442.774
		c4.174-1.771,7.917-3.7,10.579-7.047c2.893-3.641,5.847-7.292,8.211-11.273c0.734-1.238,1.639-2.187,2.668-2.882
		c2.763-0.552,5.517-0.958,8.149-1.191c0.132,0.026,0.263,0.049,0.396,0.079c-4.058,12.048-13.317,19.882-24.354,24.511
		c-2.019,0.845-2.827,0.856-4.307,0.162C331.895,444.428,331.449,443.64,331.057,442.774z M340.293,449.111
		c-0.37-0.001-0.732-0.016-1.081-0.047c3.054-1.629,5.963-3.025,8.706-4.693c8.248-5.014,14.067-12.315,17.425-21.15
		c0.535-1.406,1.174-2.355,1.928-3.033c3.391,0.136,6.291,0.685,8.303,1.742c-2.014,5.988-8.409,13.098-15.67,18.545
		C353.433,445.266,346.303,448.61,340.293,449.111z M327.563,415.603c-10.478-6.158-12.698-9.817-10.545-18.259
		c4.676,0.678,9.642,0.959,14.367,2.174c7.314,1.881,14.261,2.36,21.235-1.303c10.809-5.679,16.678-3.875,24.769,7.922
		C362.101,418.069,343.462,410.945,327.563,415.603z M374.031,440.395c2.188-2.214,4.195-4.668,6.178-7.162
		c2.437-2.104,5.132-2.011,7.421,0.3c2.394,2.415,4.597,5.021,6.979,7.45c7.565,7.713,17.229,12.015,26.853,16.367
		c0.219,0.099,3.729,1.829,3.922,1.983C407.233,459.739,389.076,450.073,374.031,440.395z M386.437,425.646
		c0.08-0.089,0.159-0.181,0.239-0.27c1.269-1.398,2.592-3.011,4.028-4.305c3.833,0.159,7.478,0.362,11.114,0.308
		c19.35-0.295,27.467,1.11,42.206,7.51c1.624,0.705,3.19,1.202,4.603,1.855c1.217,0.563,2.339,1.175,3.414,1.818
		c2.191,1.313,4.144,2.841,6.047,4.693c-1.033,2.209-2.367,4.237-3.938,6.112C433.936,429.349,410.62,426.929,386.437,425.646z
		 M293.323,440.895c2.452-0.769,4.832-1.515,7.176-2.249c4.156,8.785,9.681,13.931,17.538,18.357
		C308.794,456.098,299.196,450.31,293.323,440.895z M435.839,456.75c-1.009-0.105-2.064-0.38-3.226-0.842
		c-9.488-3.778-19.082-7.274-27.364-13.415c-3.917-2.901-7.521-6.228-12.653-10.52c6.384,0,10.811-0.28,15.173,0.128
		c0.426,0.04,0.878,0.134,1.333,0.257c3.244,0.461,9.658,1.536,14.23,3.379c9.633,1.879,18.531,5.384,26.344,12.103
		c-1.047,0.89-2.141,1.745-3.28,2.562C443,452.832,439.479,454.943,435.839,456.75z M522.256,367.153c0,0-1.546,6.096-4.912,14.263
		c-0.138,0.413-0.271,0.823-0.452,1.251c-0.077,0.18-0.198,0.326-0.285,0.498c-2.737,6.378-6.526,13.772-11.488,20.454
		c-0.294,0.45-0.607,0.89-0.968,1.281c-10.714,11.676-24.721,12.51-39.142,10.622c-4.745-0.622-9.458-2.356-13.894-4.267
		c-6.816-2.935-8.854-8.902-5.807-15.605c1.006-2.207,2.386-4.245,3.421-6.44c1.028-2.177,1.841-4.453,2.909-7.084
		c18.043,3.289,33.331-0.113,41.806-18.705c-1.42,1.273-2.88,2.506-4.252,3.831c-6.016,5.8-13.066,9.184-21.52,9.484
		c-15.723,0.563-21.197-5.672-18.665-21.842c4.344-2.733,8.921-5.612,13.864-8.727c-11.818,1.179-22.76,3.619-33.499,2.924
		c-9.213-0.597-18.343-4.384-27.18-7.655c-2.175-0.809-4.484-5.247-4.225-7.753c0.46-4.417,2.335-8.921,4.536-12.877
		c4.822-8.668,10.201-17.029,15.4-25.489c0.732-1.189,1.72-2.221,3.594-4.599c9.579,12.386,19.346,24.175,39.247,22.02
		c10.535-1.563,12.75-11.775,12.75-11.775c-6.423,8.515-17.658,11.197-27.84,5.12c-12.009-7.172-19.484-17.82-19.057-32.321
		c0.264-8.958,1.95-17.871,2.901-26.813c0.896-8.435,1.954-16.861,2.397-25.321c0.325-6.224,3.224-9.071,9.191-8.463
		c22.174,2.254,40.843,10.509,52.08,31.117c0.325,0.6,0.354,1.365,0.761,3.037c-2.177,0.651-4.332,1.921-6.422,1.815
		c-7.333-0.369-10.161,3.736-12.203,10.03c-1.259,3.875-3.651,8.039-6.776,10.491c-4.16,3.264-9.218,1.987-11.925-2.701
		c-2.547-4.413-0.937-8.174,3.56-11.05c8.793-5.624,9.976-13.154,3.63-22.372c-0.233,4.219,0.479,8.493-0.926,11.892
		c-1.383,3.348-4.914,5.803-7.548,8.701c-4.019-6.133-7.136-10.89-10.561-16.115c1.485,9.964,2.935,18.581,4.007,27.246
		c0.815,6.561,3.194,11.76,9.993,13.802c6.824,2.049,11.812-1.01,15.928-6.096c2.905-3.593,5.496-7.464,8.584-10.889
		c7.22-7.999,17.1-6.561,22.102,3.041c4.588,8.8,2.692,20.443-4.713,28.417c-0.852,0.915-6.204,5.386-7.249,6.29
		c0,0,12.295-1.991,16.744-9.503c7.867,5.749,13.407,33.013,8.936,41.088c-2.86-1.079-16.195-5.063-20.86-2.74
		c7.007,3.355,6.019,15.452,2.1,24.135c0.831,0.213,10.293-8.525,9.551-17.336C522.962,337.675,526.701,352.261,522.256,367.153z"/>
	<path fill="#FFFFFF" d="M308.011,339.019c6.102,7.435,7.709,15.842,5.625,24.878c-0.779,3.366-0.953,6.521-0.479,9.933
		c1.008-1.261,1.641-2.618,2.049-4.034c0.878-3.022,1.326-6.208,2.524-9.086c2.148-5.161,5.145-6.495,10.32-4.768
		c2.666,0.888,7.706,1.713,12.946,1.407c1.014-0.061,2.034-0.63,3.046-0.781c-8.588-2.968-19.086-3.864-25.593-10.238
		c-2.553-2.499-2.646-5.555,0.283-7.514c2.581-1.733,5.532-3.28,8.533-3.958c7.691-1.729,15.417-3.474,23.399-3.236
		c0.88,0.025,1.788-0.208,2.629-0.478c0.848-0.267,1.629-0.735,3.438-1.577c-12.28-1.041-23.283-1.701-34.278,1.401
		c-3.112,0.879-6.828,0.35-10.104-0.329c-3.474-0.719-6.726-2.463-10.123-3.619c-4.626-1.576-4.67-1.247-9.354-0.896
		C292.583,326.554,302.399,332.183,308.011,339.019z"/>
</g>
</svg>
