<svg xmlns="http://www.w3.org/2000/svg" width="600" height="600" fill="#fff" xmlns:v="https://vecta.io/nano"><path d="M530.965 312.983c-7.322-34.187-24.278-63.599-44.901-90.943-35.219-46.705-78.996-81.514-138.372-91.589-41.582-7.055-83.314-5.974-124.929 1.363-37.352 6.586-71.753 19.416-100.757 44.689-20.076 17.494-36.602 37.527-46.796 62.479-11.938 29.221-10.465 58.641-1.05 87.862 6.1 18.928 18.429 32.938 37.703 40.005 16.837 6.176 34.104 9.762 52.25 8.928 5.273 8.881 6.299 17.626 5.761 26.817-.794 13.458 5.055 24 16.565 30.345 21.688 11.958 44.926 18.749 69.998 16.262 9.814-.974 19.492-3.312 29.631-5.098 11.592 20.198 30.876 22.284 51.18 21.937 5.483 3.289 11.42 7.622 17.224 7.45 24.04-.714 48.117-2.05 72.029-4.585 21.189-2.243 36.101-13.604 42.021-35 .634-2.279 1.633-4.456 2.419-6.561 5.609-.706 10.904-.607 15.665-2.158 6.564-2.138 13.896-4.212 18.808-8.64 9.975-8.99 17.354-20.29 22.009-33.147 8.371-23.126 8.664-46.496 3.542-70.416zm-80.376-115.147c1.471 1.581 1.175 4.819 2.001 8.767-6.763.904-14.322 3.985-31.854-4.16l-3.245-3.247c-1.544-1.51-1.485-2.56.165-4.176l15.215-15.04c6.252 5.55 12.008 11.73 17.718 17.856zm-39.941-.373l3.013 3.006c8.518 9.341 11.252 19.82 10.641 31.085l-.387 5.94-27.989-28.085-22.981-23.153c-.673-.675-1.004-1.724-1.492-2.581.962-.242 1.924-.704 2.892-.723 5.603-.074 11.214.12 16.807-.129 3.661-.16 6.221 1.193 8.72 3.76l9.919 10.024-.175-.102c.359.316.688.639 1.032.958zm-89.554-63.643c30.231.908 52.022 10.688 71.521 19.216-1.78 1.178-3.753 1.345-6.024 1.335l-41.809-.02c-4.398.003-8.674.604-11.892-4.179-1.936-2.878-6.395-2.508-9.188-.448s-4.083 5.896-2.943 9.285c1.169 3.472 3.659 5.238 8.448 5.525.939-.521 3.482-1.107 4.583-2.744 2.183-3.251 4.955-3.485 8.213-3.473l44.592-.007c3.261-.013 5.84.439 8.18 3.502 2.951 3.875 8.281 3.544 11.316.113.467-.529.846-1.099 1.157-1.69 10.861 6.509 19.013 14.199 22.02 16.66.082.067.16.138.242.205l-13.629 13.899c-3.229 3.157-3.315 3.122-6.654-.096-2.388-2.313-4.912-4.525-7.004-7.092-2.935-3.604-6.508-4.558-11.043-4.537l-98.759.168c-3.593.014-6.251-.925-8.798-3.514l-36.783-36.651c-.708-.69-1.311-1.375-1.826-2.07 9.985-1.269 21.042-2.314 33.122-2.956l14.553 14.464c1.882 1.865 2.881 3.57 2.51 6.568-.683 5.576 2.85 9.225 7.985 9.181 4.741-.041 8.03-3.359 7.961-8.087-.069-5.011-3.337-8.291-8.682-7.783-3.388.322-5.377-.791-7.532-2.997l-11.606-11.593c11.704-.495 24.306-.609 37.769-.184zm-202.721 55.629c17.079-18.519 31.3-22.529 46.653-31.176 4.72-2.658 10.07-4.369 15.432-6.612l.073-.029c-.702 2.646-2.203 4.886-4.453 7.12l-97.603 97.571c5.945-24.313 24.55-50.236 39.898-66.874zm25.242 174.272c-2.404.205-5.198-.249-8.619-.714-32.004-4.372-42.491-20.513-43.334-21.958.006 0-.238-.417-.645-1.117l2.031 2.045c2.815 2.859 5.756 4.181 9.759 4.003 5.624-.249 11.301.326 16.892-.159 6.367-.553 10.8 1.795 15.26 6.288l11.574 11.621c-.966.028-1.94.028-2.918-.009zm17.926-4.285c.015 0 .029.004.046.008-2.599 1.924-6.096 3.174-9.973 3.809l-14.832-14.671c-1.306-1.42-.889-2.449 1.149-2.607.966-.072 1.987-.06 2.957-.06l34.758.009c-.02.022-.037.043-.057.065-6.93 8.082-11.344 11.775-14.048 13.447zm107.399 76.888c-19.662 3.527-39.419 3.571-58.436-3.048-7.604-2.649-14.461-7.688-21.274-12.214-2.137-1.42-3.022-4.728-5.463-8.818L202 415.683l.813-2.122-5.588-3.114c-16.78-8.972-26.213-25.925-22.448-41.919 1.174-4.99 3.601-10.461 7.172-13.963 10.066-9.861 20.667-19.265 31.722-28.003 11.524-9.107 24.882-9.924 40.336-5.748-2.073 9.158-5.668 17.984-5.609 26.784.058 8.814 3.761 17.607 6.012 27.012-7.183 4.438-16.387 7.124-19.294 17.124 7.15-5.649 13.888-12.133 22.924-10.354 7.043 7.311 14.398 7.277 14.801 6.63-1.308-.919-2.656-1.789-3.92-2.767-7.684-5.949-7.379-9.967-2.283-18.408 2.428-4.021 5.298-7.312 7.345-10.93-2.693 0-11.826 7.493-11.943 10.187-5.27-5.386-7.648-10.249-7.359-15.998.703-13.959 5.535-25.569 18.568-33.458 10.977-6.648 21.069-14.915 30.936-23.199 16.229-13.619 35.028-12.759 54.11-10.655 8.016.889 12.408 6.798 15.608 14.205 2.316-7.208 2.316-7.208-8.142-20.861 2.739-2.891 5.469-6.122 8.564-8.958 5.188-4.757 8.106-9.905 9.032-17.443 1.043-8.5 5.348-16.598 8.182-24.717-4.407 1.767-7.438 6.195-9.493 11.339-.502 1.254-.969 2.523-1.425 3.797l-29.938-30.029c-2.671-2.693-5.404-3.95-9.203-3.877-10.101.187-20.209.039-30.313.073-3.154.015-5.737-.199-8.019-3.321-3.024-4.144-8.312-4.083-11.813-.785-3.377 3.176-3.299 8.8.159 11.956 3.567 3.256 8.648 3.16 11.745-1.058 2.115-2.883 4.481-3.212 7.483-3.196l27.981-.06c4.221-.121 6.913 1.783 9.866 4.844 7.705 7.981 24.359 24.449 30.345 30.367-1.127 3.299-2.269 6.59-3.666 9.771-6.689 15.218-18.486 20.707-35.137 16.781-11.456-2.7-17.752-13.038-17.337-28.406.019-.651-.234-1.31-.563-3.015-3.659 3.944-4.743 7.805-4.326 11.965l-59.761.081c-3.006.004-5.421-.344-7.587-3.086-3.19-4.04-8.33-4.125-11.795-.931-3.143 2.909-3.308 8.443-.34 11.577 3.317 3.509 8.773 3.44 12.25-.651 1.855-2.181 3.74-2.997 6.464-2.988l61.585.085c2.125 7.582 2.708 12.231.972 15.975l-90.67-.258c-3.666.009-6.541-.7-9.098-3.917-2.92-3.657-8.22-3.457-11.405-.268-3.098 3.092-3.107 8.513-.017 11.552 3.165 3.113 8.676 3.462 11.442-.217 2.724-3.621 5.946-3.807 9.684-3.739 2.911.057 5.826.006 8.744.006l78.864.277c-2.145 2.171-5.35 4.243-9.841 6.756-3.424 1.916-6.771 3.969-10.098 6.059-6.514-.293-13.028-.812-19.542-.777-2.699.013-4.596-1.398-6.449-3.643-3.342-4.041-9.005-4.083-12.289-.622-3.081 3.24-2.925 8.463.348 11.531 3.352 3.142 8.646 3.054 11.859-.86 2.038-2.479 4.605-1.84 7.422-1.813l12.516.062-5.527 3.444c-2.175 1.328-6.954 3.348-6.978 3.333-5.084 2.686-20.487 9.309-20.487 9.309-.018.004-.035.008-.053.011-3.747 1.095-11.171 1.116-15.057.94-4.126-.183-8.262-1.142-12.35-.918l-.448.029c2.107-2.31 3.881-3.883 8.394-3.28 4.532.605 7.6-3.879 7.195-8.646-.369-4.34-3.868-7.388-8.31-7.234-4.764.161-7.697 3.694-7.933 8.976-.084 1.926-.508 4.369-1.738 5.633l-5.62 5.712c-1.279.314-2.596.696-3.985 1.188-.009.004-.016.008-.025.012-8.418 3.731-17.205 12.4-17.205 12.4l-.068.033c-2.163 1.497-15.666 12.626-21.581 18.541-6.841.068-13.684-.01-20.524-.06-1.266-.005-2.528-.466-3.792-.717.709-1.081 1.255-2.327 2.144-3.226l29.619-29.732c2.069-2.093 4.149-2.929 7.192-2.768 5.71.304 9.067-3.146 8.831-8.326-.221-4.72-3.776-7.935-8.465-7.644-4.786.296-8.355 4.089-7.56 9.12.514 3.271-.711 5-2.737 7.009l-32.93 33.003c-2.371 2.424-4.835 3.454-8.198 3.414-13.015-.143-26.034-.172-39.05.044-3.853.064-6.548-1.189-9.184-3.846l-10.276-10.311c-2.11-4.148-5.126-10.151-7.261-18.272l18.915 18.786c1.722 1.695 4.664 2.839 7.111 2.973 7.161.39 14.376-.064 21.548.224 4.452.175 7.609-1.391 10.725-4.52l107.916-108.038c2.66-2.667 5.029-4.879 9.472-4.378 4.362.498 7.472-2.825 7.913-6.881.487-4.486-2.72-8.569-7.143-9.091-4.726-.56-9.098 2.821-8.761 7.803.302 4.512-1.687 7.216-4.57 10-5.447 5.266-10.732 10.701-16.087 16.056l-90.18 90.327c-3.617 3.649-7.292 5.26-12.302 4.927-4.646-.306-9.345-.356-13.976.009-4.897.39-8.557-1.121-11.722-4.885-3.341-3.976-3.604-3.864-.064-7.422l35.393-35.488c2.415-2.44 4.757-4.03 8.562-3.75 4.508.322 7.344-2.225 7.973-6.063.531-3.271-.119-6.244-2.949-8.321-2.771-2.027-5.772-2.168-8.778-.54-3.017 1.63-4.686 4.332-4.219 7.667.377 2.726.095 4.704-1.963 6.742l-37.056 37.118c-2.649 2.693-4.386 2.65-7.084-.099l-10.184-10.276c-.537-3.303-.906-6.871-1.01-10.74-.064-2.395-.965-14.779 1.812-27.042 1.488-1.783 2.944-3.527 4.396-4.975l99.754-99.526c3.04-3.029 4.401-5.864 4.457-10.097 5.057-1.687 14.206-4.453 27.098-7.241l.012 6.994c.005 3.257-1.352 5.366-3.533 7.532l-96.456 96.342c-3.63 3.626-6.661 7.631-13.05 6.899-4.125-.476-7.245 4.336-6.808 8.527.414 4.06 3.707 7.13 7.811 7.263 4.586.15 8.626-2.719 8.07-7.129-.682-5.436 2.324-8.136 5.487-11.296l97.359-96.984c3.9-3.864 5.439-7.512 5.419-13.008l-.012-6.042 8.677-1.651-.157 37.932c.001 3.19-1.091 6.435-3.313 8.637l-42.023 41.791c-2.563 2.591-4.837 4.373-8.965 3.864-4.636-.569-8.185 3.396-8.213 7.885-.035 4.58 3.476 8.107 8.107 8.125 4.819.016 8.946-3.722 8.068-8.53-.693-3.842.988-5.673 3.234-7.909 12.811-12.741 25.197-25.804 38.483-38.016 6.636-6.098 8.807-12.315 8.764-21.064l-.074-33.392c3.747-.627 7.699-1.232 11.849-1.8.548.856 1.212 1.684 2.043 2.495l38.247 38.26c3.228 3.319 6.524 4.51 11.051 4.47l66.189-.173c4.164-.031 6.842 1.734 9.804 4.727l55.238 55.157c-1.708 18.098-5.433 35.713-13.778 52.414-6.843 13.696-16.605 23.825-30.378 30.257-.999.468 8.014 2.313 13.557 1.62 2.58 5.347.494 10.158-3.103 13.726-3.538 3.509-8.062 6.206-12.529 8.54-4.441 2.32-9.351 3.751-14.054 5.569l.133 1.947c3.76-.293 7.69.007 11.237-1.021 5.103-1.481 9.771-4.669 14.916-5.756 5.22-1.104 11.351-2.1 16.093-.392 9.777 3.527 19.299 6.532 29.825 5.229 1.826-.228 3.776.53 5.431.794 11.918 26.027.637 48.168-25.87 47.524-15.584-.377-30.596-1.193-43.941-10.422-5.954-4.116-12.28-3.398-18.841-.782-10.17 4.05-17.178 3.425-22.178-1.713v-10.776c-4 2.5-3.598 3.776-4.561 5.357-4.881 8.014-11.666 10.531-20.03 7.245-6.635-2.605-8.143-7.425-5.629-17.806.099-.409-.064-.885-.112-1.347-3.304 2.441-3.303 2.441-7.478 20.016-10.714 10.783-28.68 5.848-40.638 17.735 23.25-4.764 25.61 4.124 17.966 20.63 4.925-1.837 7.084-5.107 8.853-12.21 1.18-4.742 1.525-11.288 4.716-13.568 5.386-3.849 12.731-4.954 17.885-6.736l18.064 20.213c-15.726 7.759-32.376 14.177-50.097 17.356zm52.315-180.1l.128-.001.002.023h-.127l-.003-.022zm85.125 208.074l-8.701.471-3.095-.098c-2.585-.107-5.285-1.054-7.648-2.198-7.163-3.469-12.961-8.841-18.74-14.187-.692-.638-1.159-1.445-1.157-2.23a60.35 60.35 0 0 0 2.809-1.967c.033-.024.064-.052.098-.076.469.029.917.132 1.246.305 3.033 1.592 5.828 3.625 8.829 5.282 11.105 6.137 22.624 11.231 35.169 13.698.05.01.098.03.147.057a77.36 77.36 0 0 1-8.957.943zm-47.195 3.048c-7.272.41-13.177-2.158-16.195-8.5 6.045-3.229 12.229-5.989 18.022-9.176 1.168.148 2.117 1.081 3.062 2.102 5.057 5.472 10.945 9.895 17.596 14.068l-22.485 1.506zm-54.336-30.064l10.213-3.2 14.746 21.107c-.537.244-1.083.463-1.638.659-7.848-.938-18.721-9.842-23.321-18.566zm154.962-5.062c-3.396-2.858-11.475-8.284-35.243-13.83-6.097-1.422-14.009-1.565-21.301-2.109 4.721-1.26 9.487-2.194 14.167-2.035 14.842.509 29.226 4.365 43.023 11.388.059 2.345-.18 4.529-.646 6.586zm-130.309 6.778c-.852-1.953-1.764-3.828-2.53-5.55 2.537-3.721 8.948-7.088 16.42-9.505-3.118 7.004-6.796 12.62-13.89 15.055zm1.555 3.776c4.174-1.771 7.917-3.7 10.579-7.047 2.893-3.641 5.847-7.292 8.211-11.273.734-1.238 1.639-2.187 2.668-2.882 2.763-.552 5.517-.958 8.149-1.191l.396.079c-4.058 12.048-13.317 19.882-24.354 24.511-2.019.845-2.827.856-4.307.162a13.9 13.9 0 0 1-1.342-2.359zm9.236 6.337a12.64 12.64 0 0 1-1.081-.047c3.054-1.629 5.963-3.025 8.706-4.693 8.248-5.014 14.067-12.315 17.425-21.15.535-1.406 1.174-2.355 1.928-3.033 3.391.136 6.291.685 8.303 1.742-2.014 5.988-8.409 13.098-15.67 18.545-6.471 4.791-13.601 8.135-19.611 8.636zm-12.73-33.508c-10.478-6.158-12.698-9.817-10.545-18.259 4.676.678 9.642.959 14.367 2.174 7.314 1.881 14.261 2.36 21.235-1.303 10.809-5.679 16.678-3.875 24.769 7.922-15.288 11.932-33.927 4.808-49.826 9.466zm46.468 24.792c2.188-2.214 4.195-4.668 6.178-7.162 2.437-2.104 5.132-2.011 7.421.3 2.394 2.415 4.597 5.021 6.979 7.45 7.565 7.713 17.229 12.015 26.853 16.367.219.099 3.729 1.829 3.922 1.983-18.151.406-36.308-9.26-51.353-18.938zm12.406-14.749l.239-.27c1.269-1.398 2.592-3.011 4.028-4.305 3.833.159 7.478.362 11.114.308 19.35-.295 27.467 1.11 42.206 7.51 1.624.705 3.19 1.202 4.603 1.855a36.32 36.32 0 0 1 3.414 1.818c2.191 1.313 4.144 2.841 6.047 4.693-1.033 2.209-2.367 4.237-3.938 6.112-20.214-14.018-43.53-16.438-67.713-17.721zm-93.114 15.249l7.176-2.249c4.156 8.785 9.681 13.931 17.538 18.357-9.243-.905-18.841-6.693-24.714-16.108zm142.516 15.855c-1.009-.105-2.064-.38-3.226-.842-9.488-3.778-19.082-7.274-27.364-13.415-3.917-2.901-7.521-6.228-12.653-10.52 6.384 0 10.811-.28 15.173.128.426.04.878.134 1.333.257 3.244.461 9.658 1.536 14.23 3.379 9.633 1.879 18.531 5.384 26.344 12.103a50.6 50.6 0 0 1-3.28 2.562 76.8 76.8 0 0 1-10.557 6.348zm86.417-89.597s-1.546 6.096-4.912 14.263c-.138.413-.271.823-.452 1.251-.077.18-.198.326-.285.498-2.737 6.378-6.526 13.772-11.488 20.454-.294.45-.607.89-.968 1.281-10.714 11.676-24.721 12.51-39.142 10.622-4.745-.622-9.458-2.356-13.894-4.267-6.816-2.935-8.854-8.902-5.807-15.605 1.006-2.207 2.386-4.245 3.421-6.44 1.028-2.177 1.841-4.453 2.909-7.084 18.043 3.289 33.331-.113 41.806-18.705-1.42 1.273-2.88 2.506-4.252 3.831-6.016 5.8-13.066 9.184-21.52 9.484-15.723.563-21.197-5.672-18.665-21.842l13.864-8.727c-11.818 1.179-22.76 3.619-33.499 2.924-9.213-.597-18.343-4.384-27.18-7.655-2.175-.809-4.484-5.247-4.225-7.753.46-4.417 2.335-8.921 4.536-12.877 4.822-8.668 10.201-17.029 15.4-25.489.732-1.189 1.72-2.221 3.594-4.599 9.579 12.386 19.346 24.175 39.247 22.02 10.535-1.563 12.75-11.775 12.75-11.775-6.423 8.515-17.658 11.197-27.84 5.12-12.009-7.172-19.484-17.82-19.057-32.321.264-8.958 1.95-17.871 2.901-26.813.896-8.435 1.954-16.861 2.397-25.321.325-6.224 3.224-9.071 9.191-8.463 22.174 2.254 40.843 10.509 52.08 31.117.325.6.354 1.365.761 3.037-2.177.651-4.332 1.921-6.422 1.815-7.333-.369-10.161 3.736-12.203 10.03-1.259 3.875-3.651 8.039-6.776 10.491-4.16 3.264-9.218 1.987-11.925-2.701-2.547-4.413-.937-8.174 3.56-11.05 8.793-5.624 9.976-13.154 3.63-22.372-.233 4.219.479 8.493-.926 11.892-1.383 3.348-4.914 5.803-7.548 8.701l-10.561-16.115 4.007 27.246c.815 6.561 3.194 11.76 9.993 13.802 6.824 2.049 11.812-1.01 15.928-6.096 2.905-3.593 5.496-7.464 8.584-10.889 7.22-7.999 17.1-6.561 22.102 3.041 4.588 8.8 2.692 20.443-4.713 28.417-.852.915-6.204 5.386-7.249 6.29 0 0 12.295-1.991 16.744-9.503 7.867 5.749 13.407 33.013 8.936 41.088-2.86-1.079-16.195-5.063-20.86-2.74 7.007 3.355 6.019 15.452 2.1 24.135.831.213 10.293-8.525 9.551-17.336 13.083 2.21 16.822 16.796 12.377 31.688zm-214.245-28.134c6.102 7.435 7.709 15.842 5.625 24.878-.779 3.366-.953 6.521-.479 9.933 1.008-1.261 1.641-2.618 2.049-4.034.878-3.022 1.326-6.208 2.524-9.086 2.148-5.161 5.145-6.495 10.32-4.768 2.666.888 7.706 1.713 12.946 1.407 1.014-.061 2.034-.63 3.046-.781-8.588-2.968-19.086-3.864-25.593-10.238-2.553-2.499-2.646-5.555.283-7.514 2.581-1.733 5.532-3.28 8.533-3.958 7.691-1.729 15.417-3.474 23.399-3.236.88.025 1.788-.208 2.629-.478.848-.267 1.629-.735 3.438-1.577-12.28-1.041-23.283-1.701-34.278 1.401-3.112.879-6.828.35-10.104-.329-3.474-.719-6.726-2.463-10.123-3.619-4.626-1.576-4.67-1.247-9.354-.896-.289.43 9.527 6.059 15.139 12.895z"/></svg>